#!OML:ASF F:\VICON\USERDATA\INSTALL\rory3\rory3.ASF
:FULLY-SPECIFIED
:DEGREES
71
root 3.86108 17.5264 3.89562 19.8979 -12.1984 1.7634
lowerback -10.9037 2.83238 3.34599
upperback -14.6844 3.52049 -0.531586
thorax -9.42985 1.35166 -2.32546
lowerneck -2.53822 17.8716 13.3018
upperneck 12.0384 22.6159 5.2142
head 4.93736 11.9417 1.00321
rclavicle 7.95139e-016 1.98785e-015
rhumerus 0.835029 -19.7984 21.1675
rradius 122.301
rwrist -56.6695
rhand -6.67722 -47.2555
rfingers 7.12502
rthumb 19.1812 -76.3296
lclavicle 7.95139e-016 1.98785e-015
lhumerus 26.9623 17.9565 -25.2584
lradius 33.7748
lwrist 48.8811
lhand -25.7615 -19.6903
lfingers 7.12502
lthumb 0.776142 10.288
rfemur -3.11706 2.92589 -5.78954
rtibia 6.47982
rfoot -43.2185 -9.80182
rtoes 54.8612
lfemur -20.3391 1.44984 -30.8237
ltibia 12.8239
lfoot -11.5958 8.46409
ltoes 7.04021
72
root 3.86366 17.5315 3.88817 20.3257 -12.5635 1.46249
lowerback -11.1444 3.01487 3.50603
upperback -14.7975 3.74744 -0.495289
thorax -9.40846 1.45005 -2.35834
lowerneck -2.36415 17.8694 13.3774
upperneck 11.9229 22.6477 5.14187
head 4.89098 11.9513 0.954776
rclavicle 4.86029e-014 4.01545e-014
rhumerus 0.781262 -19.7708 21.216
rradius 122.34
rwrist -56.6992
rhand -6.67692 -47.172
rfingers 7.12502
rthumb 19.1815 -76.2461
lclavicle 4.86029e-014 4.01545e-014
lhumerus 27.0974 18.1286 -25.0261
lradius 33.6834
lwrist 48.7506
lhand -25.7198 -19.4725
lfingers 7.12502
lthumb 0.816408 10.5057
rfemur -3.80475 3.16689 -5.67538
rtibia 6.51943
rfoot -43.3012 -9.69864
rtoes 55.0126
lfemur -20.8385 1.59922 -30.6277
ltibia 12.9037
lfoot -11.5984 8.65165
ltoes 6.96939
73
root 3.86517 17.5321 3.88922 20.0697 -11.9763 1.53047
lowerback -11.0886 2.85045 3.66968
upperback -14.6546 3.52313 -0.509486
thorax -9.27803 1.32675 -2.47045
lowerneck -2.28638 17.857 13.3245
upperneck 11.7319 22.663 5.05566
head 4.82197 11.9444 0.917282
rclavicle -6.36111e-015 3.97569e-016
rhumerus 0.808033 -19.871 21.1815
rradius 122.279
rwrist -56.6793
rhand -6.9447 -47.1611
rfingers 7.12502
rthumb 18.924 -76.2606
lclavicle -6.36111e-015 3.97569e-016
lhumerus 27.1193 18.2975 -24.8931
lradius 33.6009
lwrist 48.5066
lhand -25.7668 -19.5862
lfingers 7.12502
lthumb 0.770959 10.3921
rfemur -3.15125 2.75726 -5.47281
rtibia 6.4107
rfoot -43.1953 -9.62527
rtoes 55.0634
lfemur -20.5296 1.49601 -30.5769
ltibia 12.8819
lfoot -11.6011 8.23377
ltoes 6.93798
74
root 3.86652 17.5351 3.88605 20.402 -12.4231 1.36268
lowerback -11.3417 3.01425 3.66892
upperback -14.7104 3.72907 -0.478716
thorax -9.18984 1.43276 -2.41769
lowerneck -2.35261 17.866 13.2327
upperneck 11.7195 22.6632 5.12656
head 4.80971 11.9442 0.950185
rclavicle 2.73329e-014 1.27222e-014
rhumerus 0.94668 -19.9261 20.9896
rradius 122.17
rwrist -56.5618
rhand -7.26007 -47.1832
rfingers 7.12502
rthumb 18.6207 -76.312
lclavicle 2.73329e-014 1.27222e-014
lhumerus 27.2118 18.6269 -24.5945
lradius 33.4504
lwrist 47.8636
lhand -25.5225 -19.789
lfingers 7.12502
lthumb 1.00689 10.1884
rfemur -3.6482 3.05582 -5.53225
rtibia 6.23099
rfoot -43.3197 -9.89869
rtoes 55.0436
lfemur -20.922 1.58617 -30.5136
ltibia 12.9407
lfoot -11.577 8.56349
ltoes 7.19057
75
root 3.86491 17.5312 3.88731 20.0121 -12.1059 1.68296
lowerback -11.0763 2.85011 3.47391
upperback -14.6306 3.52865 -0.554323
thorax -9.26169 1.34676 -2.4097
lowerneck -2.42929 17.9015 13.2499
upperneck 11.8873 22.6787 5.24349
head 4.86439 11.9654 1.00005
rclavicle 1.41137e-014 -1.35174e-014
rhumerus 1.04164 -19.9515 20.8197
rradius 122.107
rwrist -56.6373
rhand -7.16685 -47.1399
rfingers 7.12502
rthumb 18.7103 -76.2601
lclavicle 1.41137e-014 -1.35174e-014
lhumerus 27.4994 19.2661 -23.9879
lradius 33.1834
lwrist 46.8058
lhand -23.7409 -19.7403
lfingers 7.12502
lthumb 2.72762 10.222
rfemur -3.09652 2.82929 -5.69181
rtibia 6.28431
rfoot -43.3454 -9.55403
rtoes 55.1475
lfemur -20.4697 1.46246 -30.7464
ltibia 12.8251
lfoot -11.6312 8.31738
ltoes 7.39931
76
root 3.86574 17.5267 3.90296 19.7583 -13.017 1.51036
lowerback -10.9564 3.15642 3.53873
upperback -14.5137 3.9339 -0.559259
thorax -9.16159 1.54594 -2.43725
lowerneck -2.30467 17.8986 13.3782
upperneck 11.868 22.7007 5.11842
head 4.8685 11.9735 0.943407
rclavicle 1.91827e-014 -1.11319e-014
rhumerus 1.10103 -19.9717 20.7146
rradius 122.093
rwrist -56.6739
rhand -6.92121 -47.0835
rfingers 7.12502
rthumb 18.9466 -76.1808
lclavicle 1.91827e-014 -1.11319e-014
lhumerus 27.5968 19.6183 -23.6842
lradius 33.0689
lwrist 46.2343
lhand -22.0413 -19.7881
lfingers 7.12502
lthumb 4.36892 10.1468
rfemur -3.1507 3.773 -5.92184
rtibia 6.04296
rfoot -43.4007 -9.85447
rtoes 55.1238
lfemur -20.0881 1.67538 -30.7357
ltibia 12.7479
lfoot -11.7654 9.08168
ltoes 7.35199
77
root 3.86688 17.5311 3.88297 20.0376 -11.8328 1.88735
lowerback -11.1232 2.72824 3.35219
upperback -14.6169 3.36704 -0.612404
thorax -9.23132 1.2755 -2.40788
lowerneck -2.15819 17.8276 13.512
upperneck 11.6416 22.6601 4.81479
head 4.82205 11.9334 0.817216
rclavicle -1.18277e-014 -1.59028e-014
rhumerus 1.17425 -20.048 20.6049
rradius 122.054
rwrist -56.4854
rhand -6.46849 -47.1397
rfingers 7.12502
rthumb 19.3819 -76.1938
lclavicle -1.18277e-014 -1.59028e-014
lhumerus 27.3972 19.3642 -23.9471
lradius 33.2096
lwrist 46.5083
lhand -22.2665 -20.0713
lfingers 7.12502
lthumb 4.1514 9.868
rfemur -2.70127 2.50468 -5.81913
rtibia 5.75268
rfoot -43.47 -9.88186
rtoes 55.1331
lfemur -20.4527 1.52059 -30.959
ltibia 12.6347
lfoot -11.5522 7.92983
ltoes 6.91594
78
root 3.86974 17.5148 3.93065 18.9009 -12.3704 1.79251
lowerback -10.6418 2.95287 3.67842
upperback -14.0645 3.66346 -0.646405
thorax -8.81894 1.40841 -2.61825
lowerneck -2.48579 17.7995 13.506
upperneck 11.6543 22.5827 4.67508
head 4.89008 11.8881 0.806897
rclavicle -2.87244e-014 -2.18663e-014
rhumerus 1.11264 -20.2058 20.5882
rradius 122.035
rwrist -56.3905
rhand -6.26167 -47.2034
rfingers 7.12502
rthumb 19.5808 -76.2373
lclavicle -2.87244e-014 -2.18663e-014
lhumerus 27.2852 19.2435 -24.0911
lradius 33.3107
lwrist 46.826
lhand -23.1049 -20.2396
lfingers 7.12502
lthumb 3.34178 9.71394
rfemur -1.69523 3.49003 -5.91878
rtibia 5.80864
rfoot -43.1591 -10.4332
rtoes 54.9898
lfemur -18.9996 1.35611 -30.8497
ltibia 12.6433
lfoot -11.771 8.9012
ltoes 7.2079
79
root 3.87051 17.5139 3.93405 19.0258 -12.5762 1.73543
lowerback -10.6598 3.01644 3.63565
upperback -13.9994 3.74799 -0.643233
thorax -8.7294 1.45831 -2.58456
lowerneck -3.04836 17.8641 13.4048
upperneck 11.8623 22.5697 4.74611
head 5.02475 11.8889 0.903334
rclavicle 1.56046e-014 -7.55382e-015
rhumerus 0.947692 -20.3021 20.6658
rradius 122.137
rwrist -56.4685
rhand -6.81678 -47.1095
rfingers 7.12502
rthumb 19.047 -76.1968
lclavicle 1.56046e-014 -7.55382e-015
lhumerus 27.2696 19.4486 -24.007
lradius 33.3006
lwrist 46.9609
lhand -23.348 -20.287
lfingers 7.12502
lthumb 3.10704 9.67012
rfemur -1.95177 3.62994 -5.97228
rtibia 5.87961
rfoot -43.0039 -10.8567
rtoes 54.9141
lfemur -19.1021 1.33182 -30.8328
ltibia 12.609
lfoot -11.6943 9.13162
ltoes 7.29915
80
root 3.86933 17.5324 3.88589 20.4414 -12.4125 1.5719
lowerback -11.1831 2.98382 3.38382
upperback -14.6252 3.70599 -0.555031
thorax -9.18811 1.44673 -2.34816
lowerneck -2.67841 17.8236 13.4328
upperneck 11.7674 22.58 4.72878
head 4.94192 11.8913 0.854155
rclavicle 2.92213e-014 2.82274e-014
rhumerus 0.960644 -20.0375 20.7634
rradius 122.234
rwrist -56.5182
rhand -7.30619 -47.065
rfingers 7.12502
rthumb 18.5763 -76.1981
lclavicle 2.92213e-014 2.82274e-014
lhumerus 27.2902 19.2026 -23.978
lradius 33.3911
lwrist 47.314
lhand -23.87 -20.378
lfingers 7.12502
lthumb 2.60287 9.58587
rfemur -3.42743 2.93908 -5.80248
rtibia 5.79127
rfoot -43.2934 -10.7605
rtoes 54.9681
lfemur -20.8884 1.61538 -30.78
ltibia 12.6953
lfoot -11.3997 8.48493
ltoes 6.7372
